<svg width="21" height="20" viewBox="0 0 21 20" fill="none" xmlns="http://www.w3.org/2000/svg">
<path d="M14.94 0H6.56C2.92 0 0.75 2.17 0.75 5.81V14.18C0.75 17.83 2.92 20 6.56 20H14.93C18.57 20 20.74 17.83 20.74 14.19V5.81C20.75 2.17 18.58 0 14.94 0ZM16.01 7.96L13.7 10.94C13.41 11.31 13 11.55 12.53 11.6C12.06 11.66 11.6 11.53 11.23 11.24L9.4 9.8C9.33 9.74 9.25 9.74 9.21 9.75C9.17 9.75 9.1 9.77 9.04 9.85L6.66 12.94C6.51 13.13 6.29 13.23 6.07 13.23C5.91 13.23 5.75 13.18 5.61 13.07C5.28 12.82 5.22 12.35 5.47 12.02L7.85 8.93C8.14 8.56 8.55 8.32 9.02 8.26C9.48 8.2 9.95 8.33 10.32 8.62L12.15 10.06C12.22 10.12 12.29 10.12 12.34 10.11C12.38 10.11 12.45 10.09 12.51 10.01L14.82 7.03C15.07 6.7 15.55 6.64 15.87 6.9C16.2 7.17 16.26 7.64 16.01 7.96Z" fill="#787D8F"/>
</svg>
