<svg width="21" height="20" viewBox="0 0 21 20" fill="none" xmlns="http://www.w3.org/2000/svg">
<g clip-path="url(#clip0_2_11152)">
<path d="M10.1075 9.63406C11.431 9.63406 12.5771 9.15936 13.5135 8.22278C14.4499 7.28635 14.9246 6.14057 14.9246 4.81688C14.9246 3.49364 14.4499 2.34771 13.5134 1.41097C12.5768 0.474699 11.4309 0 10.1075 0C8.78377 0 7.63799 0.474699 6.70156 1.41113C5.76513 2.34756 5.29028 3.49349 5.29028 4.81688C5.29028 6.14057 5.76513 7.2865 6.70172 8.22293C7.6383 9.1592 8.78423 9.63406 10.1075 9.63406Z" fill="#35B972"/>
<path d="M18.5362 15.379C18.5092 14.9893 18.4546 14.5642 18.3742 14.1152C18.293 13.663 18.1885 13.2354 18.0634 12.8447C17.9341 12.4408 17.7583 12.0419 17.541 11.6597C17.3155 11.2629 17.0506 10.9175 16.7534 10.6332C16.4426 10.3358 16.062 10.0967 15.622 9.9223C15.1834 9.74881 14.6974 9.66092 14.1776 9.66092C13.9734 9.66092 13.776 9.74469 13.3946 9.99295C13.16 10.146 12.8855 10.323 12.5791 10.5188C12.3171 10.6857 11.9621 10.8421 11.5238 10.9837C11.0961 11.1221 10.6618 11.1923 10.2332 11.1923C9.80456 11.1923 9.37045 11.1221 8.94229 10.9837C8.50437 10.8422 8.14945 10.6858 7.88776 10.5189C7.58427 10.325 7.30961 10.148 7.07142 9.9928C6.69056 9.74454 6.49296 9.66077 6.2888 9.66077C5.76878 9.66077 5.28295 9.74881 4.84456 9.92245C4.40481 10.0966 4.0241 10.3357 3.71298 10.6334C3.41589 10.9178 3.15084 11.2631 2.92562 11.6597C2.70849 12.0419 2.53271 12.4406 2.40332 12.8448C2.27835 13.2356 2.17383 13.663 2.09265 14.1152C2.01224 14.5635 1.95761 14.9888 1.9306 15.3794C1.90405 15.7621 1.89062 16.1593 1.89062 16.5605C1.89062 17.6045 2.2225 18.4496 2.87695 19.073C3.52331 19.688 4.37856 20.0001 5.4186 20.0001H15.0487C16.0887 20.0001 16.9437 19.6882 17.5902 19.073C18.2448 18.4501 18.5767 17.6048 18.5767 16.5603C18.5765 16.1573 18.5629 15.7598 18.5362 15.379Z" fill="#35B972"/>
</g>
<defs>
<clipPath id="clip0_2_11152">
<rect width="19.9999" height="20" fill="white" transform="translate(0.25)"/>
</clipPath>
</defs>
</svg>
